<?xml version="1.0" standalone="no"?>
<!DOCTYPE svg PUBLIC "-//W3C//DTD SVG 20010904//EN"
 "http://www.w3.org/TR/2001/REC-SVG-20010904/DTD/svg10.dtd">
<svg version="1.0" xmlns="http://www.w3.org/2000/svg"
 width="700.000000pt" height="700.000000pt" viewBox="0 0 700.000000 700.000000"
 preserveAspectRatio="xMidYMid meet">
<metadata>
Created by potrace 1.11, written by Peter Selinger 2001-2013
</metadata>
<g transform="translate(0.000000,700.000000) scale(0.100000,-0.100000)"
fill="#000000" stroke="none">
<path d="M3288 6205 c-2 -2 -41 -6 -88 -9 -47 -4 -96 -8 -110 -11 -14 -2 -61
-9 -105 -15 -65 -8 -208 -36 -285 -54 -348 -84 -710 -250 -1000 -459 -47 -33
-87 -63 -90 -67 -3 -3 -36 -30 -75 -61 -224 -180 -464 -456 -638 -736 -206
-330 -363 -729 -417 -1060 l-12 -73 -66 -35 c-184 -97 -317 -258 -379 -460
-17 -56 -18 -116 -18 -915 l0 -855 28 -80 c75 -213 230 -375 441 -461 141 -57
183 -62 584 -63 306 -1 369 2 400 15 49 20 81 51 103 99 18 38 19 96 19 1355
-1 1452 4 1344 -63 1410 -43 42 -92 53 -244 53 -109 0 -133 3 -133 14 0 21 72
225 115 323 105 244 275 513 443 700 l49 54 67 -67 c92 -90 158 -122 240 -114
51 5 96 24 281 116 121 60 255 126 298 145 198 91 429 152 647 173 141 14 445
7 540 -12 14 -3 45 -8 70 -11 75 -10 284 -71 398 -115 59 -24 195 -87 302
-142 107 -55 225 -112 262 -128 126 -52 215 -28 334 88 l67 66 71 -75 c107
-112 203 -233 322 -408 52 -75 149 -249 199 -355 41 -86 105 -239 105 -249 0
-2 -85 -3 -188 -3 -158 0 -194 -3 -225 -18 -50 -24 -95 -72 -107 -114 -6 -23
-10 -510 -10 -1344 0 -1275 1 -1309 20 -1346 25 -50 71 -88 122 -102 28 -7
162 -9 417 -7 350 4 381 6 448 26 233 70 400 204 497 398 74 147 71 103 71
1034 0 459 -3 851 -7 872 -28 138 -108 278 -221 385 -45 44 -57 62 -67 105
-13 57 -13 59 -65 226 -67 219 -168 453 -305 707 -30 56 -184 307 -202 330 -5
6 -38 51 -75 100 -162 219 -413 480 -583 605 -18 14 -45 35 -59 46 -38 31
-227 157 -291 194 -71 40 -328 165 -360 175 -14 4 -38 13 -55 21 -48 21 -233
80 -315 100 -49 12 -262 53 -300 58 -25 3 -63 8 -85 11 -22 3 -60 8 -85 11
-48 6 -627 14 -632 9z"/>
<path d="M3414 3941 c-88 -23 -181 -99 -220 -180 -37 -78 -39 -120 -38 -859
l1 -723 -29 28 c-17 15 -149 147 -295 291 -281 281 -311 303 -421 321 -55 8
-151 -8 -202 -34 -51 -26 -119 -101 -146 -160 -45 -98 -37 -223 19 -312 38
-61 1220 -1237 1267 -1262 126 -65 288 -34 391 74 24 26 292 295 595 598 303
304 562 570 576 592 35 58 47 108 45 188 -4 117 -65 217 -172 278 -52 30 -157
48 -214 37 -101 -18 -135 -46 -440 -349 -160 -160 -291 -289 -292 -287 -1 2
-2 341 -3 753 l-2 750 -28 61 c-33 74 -103 145 -170 175 -53 23 -169 34 -222
20z"/>
</g>
</svg>
